<?xml version="1.0" encoding="UTF-8" standalone="no"?>
<!DOCTYPE svg PUBLIC "-//W3C//DTD SVG 1.1//EN"
 "http://www.w3.org/Graphics/SVG/1.1/DTD/svg11.dtd">
<!-- Generated by graphviz version 2.38.0 (20140413.2041)
 -->
<!-- Title: dependency&#45;cruiser output Pages: 1 -->
<svg width="628pt" height="1011pt"
 viewBox="0.00 0.00 627.70 1010.61" xmlns="http://www.w3.org/2000/svg" xmlns:xlink="http://www.w3.org/1999/xlink">
<g id="graph0" class="graph" transform="scale(1 1) rotate(0) translate(4 1006.61)">
<title>dependency&#45;cruiser output</title>
<polygon fill="white" stroke="none" points="-4,4 -4,-1006.61 623.697,-1006.61 623.697,4 -4,4"/>
<g id="clust1" class="cluster"><title>cluster_/lib</title>
<path fill="none" stroke="black" stroke-width="2" d="M86,-285.51C86,-285.51 514.654,-285.51 514.654,-285.51 520.654,-285.51 526.654,-291.51 526.654,-297.51 526.654,-297.51 526.654,-807.51 526.654,-807.51 526.654,-813.51 520.654,-819.51 514.654,-819.51 514.654,-819.51 86,-819.51 86,-819.51 80,-819.51 74,-813.51 74,-807.51 74,-807.51 74,-297.51 74,-297.51 74,-291.51 80,-285.51 86,-285.51"/>
<text text-anchor="middle" x="300.327" y="-808.31" font-family="Helvetica,sans-Serif" font-weight="bold" font-size="9.00">lib</text>
</g>
<g id="clust2" class="cluster"><title>cluster_/lib/loader</title>
<path fill="none" stroke="black" stroke-width="2" d="M94,-319.51C94,-319.51 396.138,-319.51 396.138,-319.51 402.138,-319.51 408.138,-325.51 408.138,-331.51 408.138,-331.51 408.138,-634.51 408.138,-634.51 408.138,-640.51 402.138,-646.51 396.138,-646.51 396.138,-646.51 94,-646.51 94,-646.51 88,-646.51 82,-640.51 82,-634.51 82,-634.51 82,-331.51 82,-331.51 82,-325.51 88,-319.51 94,-319.51"/>
<text text-anchor="middle" x="245.069" y="-635.31" font-family="Helvetica,sans-Serif" font-weight="bold" font-size="9.00">loader</text>
</g>
<g id="clust3" class="cluster"><title>cluster_/lib/loader/mixin</title>
<path fill="none" stroke="black" stroke-width="2" d="M205.812,-367.51C205.812,-367.51 268.831,-367.51 268.831,-367.51 274.831,-367.51 280.831,-373.51 280.831,-379.51 280.831,-379.51 280.831,-609.51 280.831,-609.51 280.831,-615.51 274.831,-621.51 268.831,-621.51 268.831,-621.51 205.812,-621.51 205.812,-621.51 199.812,-621.51 193.812,-615.51 193.812,-609.51 193.812,-609.51 193.812,-379.51 193.812,-379.51 193.812,-373.51 199.812,-367.51 205.812,-367.51"/>
<text text-anchor="middle" x="237.322" y="-610.31" font-family="Helvetica,sans-Serif" font-weight="bold" font-size="9.00">mixin</text>
</g>
<g id="clust4" class="cluster"><title>cluster_/lib/utils</title>
<path fill="none" stroke="black" stroke-width="2" d="M319.096,-654.51C319.096,-654.51 506.654,-654.51 506.654,-654.51 512.654,-654.51 518.654,-660.51 518.654,-666.51 518.654,-666.51 518.654,-751.51 518.654,-751.51 518.654,-757.51 512.654,-763.51 506.654,-763.51 506.654,-763.51 319.096,-763.51 319.096,-763.51 313.096,-763.51 307.096,-757.51 307.096,-751.51 307.096,-751.51 307.096,-666.51 307.096,-666.51 307.096,-660.51 313.096,-654.51 319.096,-654.51"/>
<text text-anchor="middle" x="412.875" y="-752.31" font-family="Helvetica,sans-Serif" font-weight="bold" font-size="9.00">utils</text>
</g>
<!-- debug -->
<g id="node1" class="node"><title>debug</title>
<path fill="#ffffcc" stroke="red" d="M504.987,-903.01C504.987,-903.01 462.32,-903.01 462.32,-903.01 459.487,-903.01 456.654,-900.176 456.654,-897.343 456.654,-897.343 456.654,-891.676 456.654,-891.676 456.654,-888.843 459.487,-886.01 462.32,-886.01 462.32,-886.01 504.987,-886.01 504.987,-886.01 507.82,-886.01 510.654,-888.843 510.654,-891.676 510.654,-891.676 510.654,-897.343 510.654,-897.343 510.654,-900.176 507.82,-903.01 504.987,-903.01"/>
<text text-anchor="middle" x="483.654" y="-891.81" font-family="Helvetica,sans-Serif" font-size="9.00" fill="red">debug</text>
</g>
<!-- depd -->
<g id="node2" class="node"><title>depd</title>
<path fill="#ffffcc" stroke="red" d="M504.987,-114.01C504.987,-114.01 462.32,-114.01 462.32,-114.01 459.487,-114.01 456.654,-111.176 456.654,-108.343 456.654,-108.343 456.654,-102.676 456.654,-102.676 456.654,-99.843 459.487,-97.0097 462.32,-97.0097 462.32,-97.0097 504.987,-97.0097 504.987,-97.0097 507.82,-97.0097 510.654,-99.843 510.654,-102.676 510.654,-102.676 510.654,-108.343 510.654,-108.343 510.654,-111.176 507.82,-114.01 504.987,-114.01"/>
<text text-anchor="middle" x="483.654" y="-102.81" font-family="Helvetica,sans-Serif" font-size="9.00" fill="red">depd</text>
</g>
<!-- egg&#45;logger -->
<g id="node3" class="node"><title>egg&#45;logger</title>
<path fill="#ffffcc" stroke="red" d="M390.985,-99.0097C390.985,-99.0097 343.256,-99.0097 343.256,-99.0097 340.422,-99.0097 337.589,-96.1764 337.589,-93.343 337.589,-93.343 337.589,-87.6764 337.589,-87.6764 337.589,-84.843 340.422,-82.0097 343.256,-82.0097 343.256,-82.0097 390.985,-82.0097 390.985,-82.0097 393.818,-82.0097 396.651,-84.843 396.651,-87.6764 396.651,-87.6764 396.651,-93.343 396.651,-93.343 396.651,-96.1764 393.818,-99.0097 390.985,-99.0097"/>
<text text-anchor="middle" x="367.12" y="-87.8097" font-family="Helvetica,sans-Serif" font-size="9.00" fill="red">egg&#45;logger</text>
</g>
<!-- egg&#45;path&#45;matching -->
<g id="node4" class="node"><title>egg&#45;path&#45;matching</title>
<path fill="#ffffcc" stroke="red" d="M406.999,-928.01C406.999,-928.01 327.241,-928.01 327.241,-928.01 324.408,-928.01 321.575,-925.176 321.575,-922.343 321.575,-922.343 321.575,-916.676 321.575,-916.676 321.575,-913.843 324.408,-911.01 327.241,-911.01 327.241,-911.01 406.999,-911.01 406.999,-911.01 409.832,-911.01 412.666,-913.843 412.666,-916.676 412.666,-916.676 412.666,-922.343 412.666,-922.343 412.666,-925.176 409.832,-928.01 406.999,-928.01"/>
<text text-anchor="middle" x="367.12" y="-916.81" font-family="Helvetica,sans-Serif" font-size="9.00" fill="red">egg&#45;path&#45;matching</text>
</g>
<!-- extend -->
<g id="node5" class="node"><title>extend</title>
<path fill="#ffffcc" stroke="red" d="M388.453,-957.01C388.453,-957.01 345.787,-957.01 345.787,-957.01 342.953,-957.01 340.12,-954.176 340.12,-951.343 340.12,-951.343 340.12,-945.676 340.12,-945.676 340.12,-942.843 342.953,-940.01 345.787,-940.01 345.787,-940.01 388.453,-940.01 388.453,-940.01 391.287,-940.01 394.12,-942.843 394.12,-945.676 394.12,-945.676 394.12,-951.343 394.12,-951.343 394.12,-954.176 391.287,-957.01 388.453,-957.01"/>
<text text-anchor="middle" x="367.12" y="-945.81" font-family="Helvetica,sans-Serif" font-size="9.00" fill="red">extend</text>
</g>
<!-- globby -->
<g id="node6" class="node"><title>globby</title>
<path fill="#ffffcc" stroke="red" d="M504.987,-277.01C504.987,-277.01 462.32,-277.01 462.32,-277.01 459.487,-277.01 456.654,-274.176 456.654,-271.343 456.654,-271.343 456.654,-265.676 456.654,-265.676 456.654,-262.843 459.487,-260.01 462.32,-260.01 462.32,-260.01 504.987,-260.01 504.987,-260.01 507.82,-260.01 510.654,-262.843 510.654,-265.676 510.654,-265.676 510.654,-271.343 510.654,-271.343 510.654,-274.176 507.82,-277.01 504.987,-277.01"/>
<text text-anchor="middle" x="483.654" y="-265.81" font-family="Helvetica,sans-Serif" font-size="9.00" fill="red">globby</text>
</g>
<!-- index.js -->
<g id="node7" class="node"><title>index.js</title>
<g id="a_node7"><a xlink:href="index.js" xlink:title="index.js">
<path fill="#ffffcc" stroke="black" d="M48.3333,-575.01C48.3333,-575.01 5.66667,-575.01 5.66667,-575.01 2.83333,-575.01 0,-572.176 0,-569.343 0,-569.343 0,-563.676 0,-563.676 0,-560.843 2.83333,-558.01 5.66667,-558.01 5.66667,-558.01 48.3333,-558.01 48.3333,-558.01 51.1667,-558.01 54,-560.843 54,-563.676 54,-563.676 54,-569.343 54,-569.343 54,-572.176 51.1667,-575.01 48.3333,-575.01"/>
<text text-anchor="middle" x="27" y="-563.81" font-family="Helvetica,sans-Serif" font-size="9.00">index.js</text>
</a>
</g>
</g>
<!-- lib/egg.js -->
<g id="node12" class="node"><title>lib/egg.js</title>
<g id="a_node12"><a xlink:href="lib/egg.js" xlink:title="egg.js">
<path fill="#ffffcc" stroke="black" d="M258.655,-311.01C258.655,-311.01 215.988,-311.01 215.988,-311.01 213.155,-311.01 210.322,-308.176 210.322,-305.343 210.322,-305.343 210.322,-299.676 210.322,-299.676 210.322,-296.843 213.155,-294.01 215.988,-294.01 215.988,-294.01 258.655,-294.01 258.655,-294.01 261.488,-294.01 264.322,-296.843 264.322,-299.676 264.322,-299.676 264.322,-305.343 264.322,-305.343 264.322,-308.176 261.488,-311.01 258.655,-311.01"/>
<text text-anchor="middle" x="237.322" y="-299.81" font-family="Helvetica,sans-Serif" font-size="9.00">egg.js</text>
</a>
</g>
</g>
<!-- index.js&#45;&gt;lib/egg.js -->
<g id="edge1" class="edge"><title>index.js&#45;&gt;lib/egg.js</title>
<path fill="none" stroke="black" d="M29.7478,-575.078C33.8702,-592.766 46.0361,-633.036 74,-649.51 106.759,-668.808 131.32,-674.982 159.547,-649.51 214.776,-599.672 147.175,-374.466 193.812,-316.51 195.794,-314.047 198.22,-312.013 200.898,-310.334"/>
<polygon fill="black" stroke="black" points="202.471,-313.463 210.08,-306.091 199.534,-307.109 202.471,-313.463"/>
</g>
<!-- lib/loader/egg_loader.js -->
<g id="node14" class="node"><title>lib/loader/egg_loader.js</title>
<g id="a_node14"><a xlink:href="lib/loader/egg_loader.js" xlink:title="egg_loader.js">
<path fill="#ffffcc" stroke="black" d="M153.656,-480.01C153.656,-480.01 95.8915,-480.01 95.8915,-480.01 93.0582,-480.01 90.2249,-477.176 90.2249,-474.343 90.2249,-474.343 90.2249,-468.676 90.2249,-468.676 90.2249,-465.843 93.0582,-463.01 95.8915,-463.01 95.8915,-463.01 153.656,-463.01 153.656,-463.01 156.489,-463.01 159.323,-465.843 159.323,-468.676 159.323,-468.676 159.323,-474.343 159.323,-474.343 159.323,-477.176 156.489,-480.01 153.656,-480.01"/>
<text text-anchor="middle" x="124.774" y="-468.81" font-family="Helvetica,sans-Serif" font-size="9.00">egg_loader.js</text>
</a>
</g>
</g>
<!-- index.js&#45;&gt;lib/loader/egg_loader.js -->
<g id="edge2" class="edge"><title>index.js&#45;&gt;lib/loader/egg_loader.js</title>
<path fill="none" stroke="black" d="M30.2366,-557.932C35.1281,-540.941 48.4378,-502.968 74,-483.51 76.0732,-481.932 78.3242,-480.557 80.6851,-479.361"/>
<polygon fill="black" stroke="black" points="82.1965,-482.527 90.1921,-475.576 79.6068,-476.024 82.1965,-482.527"/>
</g>
<!-- inflection -->
<g id="node8" class="node"><title>inflection</title>
<path fill="#ffffcc" stroke="red" d="M504.987,-874.01C504.987,-874.01 462.32,-874.01 462.32,-874.01 459.487,-874.01 456.654,-871.176 456.654,-868.343 456.654,-868.343 456.654,-862.676 456.654,-862.676 456.654,-859.843 459.487,-857.01 462.32,-857.01 462.32,-857.01 504.987,-857.01 504.987,-857.01 507.82,-857.01 510.654,-859.843 510.654,-862.676 510.654,-862.676 510.654,-868.343 510.654,-868.343 510.654,-871.176 507.82,-874.01 504.987,-874.01"/>
<text text-anchor="middle" x="483.654" y="-862.81" font-family="Helvetica,sans-Serif" font-size="9.00" fill="red">inflection</text>
</g>
<!-- is&#45;type&#45;of -->
<g id="node9" class="node"><title>is&#45;type&#45;of</title>
<path fill="#ffffcc" stroke="red" d="M605.263,-181.01C605.263,-181.01 562.597,-181.01 562.597,-181.01 559.763,-181.01 556.93,-178.176 556.93,-175.343 556.93,-175.343 556.93,-169.676 556.93,-169.676 556.93,-166.843 559.763,-164.01 562.597,-164.01 562.597,-164.01 605.263,-164.01 605.263,-164.01 608.097,-164.01 610.93,-166.843 610.93,-169.676 610.93,-169.676 610.93,-175.343 610.93,-175.343 610.93,-178.176 608.097,-181.01 605.263,-181.01"/>
<text text-anchor="middle" x="583.93" y="-169.81" font-family="Helvetica,sans-Serif" font-size="9.00" fill="red">is&#45;type&#45;of</text>
</g>
<!-- koa -->
<g id="node10" class="node"><title>koa</title>
<path fill="#ffffcc" stroke="red" d="M388.453,-70.0097C388.453,-70.0097 345.787,-70.0097 345.787,-70.0097 342.953,-70.0097 340.12,-67.1764 340.12,-64.343 340.12,-64.343 340.12,-58.6764 340.12,-58.6764 340.12,-55.843 342.953,-53.0097 345.787,-53.0097 345.787,-53.0097 388.453,-53.0097 388.453,-53.0097 391.287,-53.0097 394.12,-55.843 394.12,-58.6764 394.12,-58.6764 394.12,-64.343 394.12,-64.343 394.12,-67.1764 391.287,-70.0097 388.453,-70.0097"/>
<text text-anchor="middle" x="367.12" y="-58.8097" font-family="Helvetica,sans-Serif" font-size="9.00" fill="red">koa</text>
</g>
<!-- koa&#45;router -->
<g id="node11" class="node"><title>koa&#45;router</title>
<path fill="#ffffcc" stroke="red" d="M506.506,-845.01C506.506,-845.01 460.802,-845.01 460.802,-845.01 457.969,-845.01 455.135,-842.176 455.135,-839.343 455.135,-839.343 455.135,-833.676 455.135,-833.676 455.135,-830.843 457.969,-828.01 460.802,-828.01 460.802,-828.01 506.506,-828.01 506.506,-828.01 509.339,-828.01 512.172,-830.843 512.172,-833.676 512.172,-833.676 512.172,-839.343 512.172,-839.343 512.172,-842.176 509.339,-845.01 506.506,-845.01"/>
<text text-anchor="middle" x="483.654" y="-833.81" font-family="Helvetica,sans-Serif" font-size="9.00" fill="red">koa&#45;router</text>
</g>
<!-- lib/egg.js&#45;&gt;debug -->
<g id="edge7" class="edge"><title>lib/egg.js&#45;&gt;debug</title>
<path fill="none" stroke="black" d="M264.717,-305.97C270.909,-308.049 276.853,-311.335 280.831,-316.51 341.888,-395.921 252.559,-682.487 307.096,-766.51 337.626,-813.546 377.525,-786.929 419.145,-824.51 440.828,-844.089 433.673,-859.698 455.145,-879.51 455.304,-879.657 455.466,-879.804 455.629,-879.95"/>
<polygon fill="black" stroke="black" points="453.608,-882.807 463.761,-885.837 457.714,-877.138 453.608,-882.807"/>
</g>
<!-- lib/egg.js&#45;&gt;depd -->
<g id="edge8" class="edge"><title>lib/egg.js&#45;&gt;depd</title>
<path fill="none" stroke="black" d="M238.926,-293.636C241.393,-264.916 253.325,-173.91 307.096,-131.51 328.094,-114.951 401.332,-108.894 446.312,-106.71"/>
<polygon fill="black" stroke="black" points="446.709,-110.196 456.544,-106.256 446.398,-103.203 446.709,-110.196"/>
</g>
<!-- lib/egg.js&#45;&gt;egg&#45;logger -->
<g id="edge9" class="edge"><title>lib/egg.js&#45;&gt;egg&#45;logger</title>
<path fill="none" stroke="black" d="M238.748,-293.688C240.702,-263.292 251.311,-161.856 307.096,-108.51 312.866,-102.991 320.28,-99.1603 327.891,-96.5021"/>
<polygon fill="black" stroke="black" points="328.889,-99.857 337.527,-93.7235 326.949,-93.131 328.889,-99.857"/>
</g>
<!-- lib/egg.js&#45;&gt;is&#45;type&#45;of -->
<g id="edge10" class="edge"><title>lib/egg.js&#45;&gt;is&#45;type&#45;of</title>
<path fill="none" stroke="black" d="M239.264,-293.819C243.922,-252.667 265.92,-78.0836 307.096,-46.5097 346.583,-16.2301 487.927,-59.2631 526.654,-90.5097 548.423,-108.074 565.176,-136.245 574.545,-154.566"/>
<polygon fill="black" stroke="black" points="571.429,-156.162 578.974,-163.6 577.714,-153.081 571.429,-156.162"/>
</g>
<!-- lib/egg.js&#45;&gt;koa -->
<g id="edge11" class="edge"><title>lib/egg.js&#45;&gt;koa</title>
<path fill="none" stroke="black" d="M238.104,-293.987C237.744,-260.611 241.104,-137.576 307.096,-75.5097 313.313,-69.6619 321.51,-66.1137 329.81,-63.995"/>
<polygon fill="black" stroke="black" points="330.7,-67.388 339.858,-62.0612 329.377,-60.5141 330.7,-67.388"/>
</g>
<!-- lib/egg.js&#45;&gt;lib/loader/egg_loader.js -->
<g id="edge3" class="edge"><title>lib/egg.js&#45;&gt;lib/loader/egg_loader.js</title>
<path fill="none" stroke="black" d="M216.353,-311.027C208.558,-313.492 200.022,-316.866 193.812,-322.51 154.297,-358.42 136.6,-421.431 129.656,-452.843"/>
<polygon fill="black" stroke="black" points="126.179,-452.373 127.563,-462.877 133.031,-453.802 126.179,-452.373"/>
</g>
<!-- lib/utils/base_context_class.js -->
<g id="node24" class="node"><title>lib/utils/base_context_class.js</title>
<g id="a_node24"><a xlink:href="lib/utils/base_context_class.js" xlink:title="base_context_class.js">
<path fill="#ffffcc" stroke="black" d="M413.502,-680.01C413.502,-680.01 320.738,-680.01 320.738,-680.01 317.905,-680.01 315.071,-677.176 315.071,-674.343 315.071,-674.343 315.071,-668.676 315.071,-668.676 315.071,-665.843 317.905,-663.01 320.738,-663.01 320.738,-663.01 413.502,-663.01 413.502,-663.01 416.336,-663.01 419.169,-665.843 419.169,-668.676 419.169,-668.676 419.169,-674.343 419.169,-674.343 419.169,-677.176 416.336,-680.01 413.502,-680.01"/>
<text text-anchor="middle" x="367.12" y="-668.81" font-family="Helvetica,sans-Serif" font-size="9.00">base_context_class.js</text>
</a>
</g>
</g>
<!-- lib/egg.js&#45;&gt;lib/utils/base_context_class.js -->
<g id="edge5" class="edge"><title>lib/egg.js&#45;&gt;lib/utils/base_context_class.js</title>
<path fill="none" stroke="black" d="M264.645,-306.025C270.838,-308.104 276.8,-311.376 280.831,-316.51 326.675,-374.891 262.388,-590.254 307.096,-649.51 309.545,-652.756 312.528,-655.524 315.839,-657.883"/>
<polygon fill="black" stroke="black" points="314.212,-660.985 324.623,-662.946 317.707,-654.92 314.212,-660.985"/>
</g>
<!-- lib/utils/index.js -->
<g id="node25" class="node"><title>lib/utils/index.js</title>
<g id="a_node25"><a xlink:href="lib/utils/index.js" xlink:title="index.js">
<path fill="#ffffcc" stroke="black" d="M504.987,-723.01C504.987,-723.01 462.32,-723.01 462.32,-723.01 459.487,-723.01 456.654,-720.176 456.654,-717.343 456.654,-717.343 456.654,-711.676 456.654,-711.676 456.654,-708.843 459.487,-706.01 462.32,-706.01 462.32,-706.01 504.987,-706.01 504.987,-706.01 507.82,-706.01 510.654,-708.843 510.654,-711.676 510.654,-711.676 510.654,-717.343 510.654,-717.343 510.654,-720.176 507.82,-723.01 504.987,-723.01"/>
<text text-anchor="middle" x="483.654" y="-711.81" font-family="Helvetica,sans-Serif" font-size="9.00">index.js</text>
</a>
</g>
</g>
<!-- lib/egg.js&#45;&gt;lib/utils/index.js -->
<g id="edge4" class="edge"><title>lib/egg.js&#45;&gt;lib/utils/index.js</title>
<path fill="none" stroke="black" d="M264.353,-295.605C303.395,-286.975 377.016,-277.661 419.145,-316.51 475.546,-368.519 481.921,-623.469 482.59,-695.515"/>
<polygon fill="black" stroke="black" points="479.092,-695.803 482.656,-705.78 486.091,-695.758 479.092,-695.803"/>
</g>
<!-- lib/utils/router.js -->
<g id="node26" class="node"><title>lib/utils/router.js</title>
<g id="a_node26"><a xlink:href="lib/utils/router.js" xlink:title="router.js">
<path fill="#ffffcc" stroke="black" d="M388.453,-709.01C388.453,-709.01 345.787,-709.01 345.787,-709.01 342.953,-709.01 340.12,-706.176 340.12,-703.343 340.12,-703.343 340.12,-697.676 340.12,-697.676 340.12,-694.843 342.953,-692.01 345.787,-692.01 345.787,-692.01 388.453,-692.01 388.453,-692.01 391.287,-692.01 394.12,-694.843 394.12,-697.676 394.12,-697.676 394.12,-703.343 394.12,-703.343 394.12,-706.176 391.287,-709.01 388.453,-709.01"/>
<text text-anchor="middle" x="367.12" y="-697.81" font-family="Helvetica,sans-Serif" font-size="9.00">router.js</text>
</a>
</g>
</g>
<!-- lib/egg.js&#45;&gt;lib/utils/router.js -->
<g id="edge6" class="edge"><title>lib/egg.js&#45;&gt;lib/utils/router.js</title>
<path fill="none" stroke="black" d="M264.672,-306.004C270.864,-308.084 276.82,-311.361 280.831,-316.51 331.354,-381.359 254.357,-622.449 307.096,-685.51 312.8,-692.33 321.125,-696.288 329.735,-698.529"/>
<polygon fill="black" stroke="black" points="329.356,-702.019 339.832,-700.438 330.656,-695.141 329.356,-702.019"/>
</g>
<!-- ready&#45;callback -->
<g id="node29" class="node"><title>ready&#45;callback</title>
<path fill="#ffffcc" stroke="red" d="M398.479,-155.01C398.479,-155.01 335.761,-155.01 335.761,-155.01 332.928,-155.01 330.095,-152.176 330.095,-149.343 330.095,-149.343 330.095,-143.676 330.095,-143.676 330.095,-140.843 332.928,-138.01 335.761,-138.01 335.761,-138.01 398.479,-138.01 398.479,-138.01 401.312,-138.01 404.146,-140.843 404.146,-143.676 404.146,-143.676 404.146,-149.343 404.146,-149.343 404.146,-152.176 401.312,-155.01 398.479,-155.01"/>
<text text-anchor="middle" x="367.12" y="-143.81" font-family="Helvetica,sans-Serif" font-size="9.00" fill="red">ready&#45;callback</text>
</g>
<!-- lib/egg.js&#45;&gt;ready&#45;callback -->
<g id="edge12" class="edge"><title>lib/egg.js&#45;&gt;ready&#45;callback</title>
<path fill="none" stroke="black" d="M240.106,-293.917C245.574,-269.758 264.386,-200.647 307.096,-164.51 311.083,-161.136 315.692,-158.395 320.541,-156.167"/>
<polygon fill="black" stroke="black" points="321.998,-159.356 330.063,-152.485 319.474,-152.827 321.998,-159.356"/>
</g>
<!-- lib/loader/context_loader.js -->
<g id="node13" class="node"><title>lib/loader/context_loader.js</title>
<g id="a_node13"><a xlink:href="lib/loader/context_loader.js" xlink:title="context_loader.js">
<path fill="#ffffcc" stroke="black" d="M273.204,-345.01C273.204,-345.01 201.439,-345.01 201.439,-345.01 198.605,-345.01 195.772,-342.176 195.772,-339.343 195.772,-339.343 195.772,-333.676 195.772,-333.676 195.772,-330.843 198.605,-328.01 201.439,-328.01 201.439,-328.01 273.204,-328.01 273.204,-328.01 276.038,-328.01 278.871,-330.843 278.871,-333.676 278.871,-333.676 278.871,-339.343 278.871,-339.343 278.871,-342.176 276.038,-345.01 273.204,-345.01"/>
<text text-anchor="middle" x="237.322" y="-333.81" font-family="Helvetica,sans-Serif" font-size="9.00">context_loader.js</text>
</a>
</g>
</g>
<!-- lib/loader/context_loader.js&#45;&gt;is&#45;type&#45;of -->
<g id="edge14" class="edge"><title>lib/loader/context_loader.js&#45;&gt;is&#45;type&#45;of</title>
<path fill="none" stroke="black" d="M275.971,-327.759C277.743,-326.522 279.383,-325.113 280.831,-323.51 321.213,-278.792 265.934,-234.51 307.096,-190.51 342.315,-152.862 369.586,-174.711 419.145,-160.51 435.227,-155.901 438.598,-151.981 455.145,-149.51 486.578,-144.815 495.468,-143.383 526.654,-149.51 537.108,-151.563 548.067,-155.573 557.507,-159.677"/>
<polygon fill="black" stroke="black" points="556.163,-162.912 566.711,-163.911 559.088,-156.552 556.163,-162.912"/>
</g>
<!-- lib/loader/file_loader.js -->
<g id="node15" class="node"><title>lib/loader/file_loader.js</title>
<g id="a_node15"><a xlink:href="lib/loader/file_loader.js" xlink:title="file_loader.js">
<path fill="#ffffcc" stroke="black" d="M394.49,-345.01C394.49,-345.01 339.751,-345.01 339.751,-345.01 336.917,-345.01 334.084,-342.176 334.084,-339.343 334.084,-339.343 334.084,-333.676 334.084,-333.676 334.084,-330.843 336.917,-328.01 339.751,-328.01 339.751,-328.01 394.49,-328.01 394.49,-328.01 397.323,-328.01 400.156,-330.843 400.156,-333.676 400.156,-333.676 400.156,-339.343 400.156,-339.343 400.156,-342.176 397.323,-345.01 394.49,-345.01"/>
<text text-anchor="middle" x="367.12" y="-333.81" font-family="Helvetica,sans-Serif" font-size="9.00">file_loader.js</text>
</a>
</g>
</g>
<!-- lib/loader/context_loader.js&#45;&gt;lib/loader/file_loader.js -->
<g id="edge13" class="edge"><title>lib/loader/context_loader.js&#45;&gt;lib/loader/file_loader.js</title>
<path fill="none" stroke="black" d="M279.109,-336.51C293.334,-336.51 309.326,-336.51 323.682,-336.51"/>
<polygon fill="black" stroke="black" points="323.798,-340.01 333.798,-336.51 323.798,-333.01 323.798,-340.01"/>
</g>
<!-- lib/loader/egg_loader.js&#45;&gt;debug -->
<g id="edge27" class="edge"><title>lib/loader/egg_loader.js&#45;&gt;debug</title>
<path fill="none" stroke="black" d="M125.457,-480.241C123.912,-537.674 123.558,-862.726 307.096,-983.51 348.695,-1010.89 374.87,-1006.31 419.145,-983.51 448.005,-968.649 466.648,-933.926 475.846,-912.509"/>
<polygon fill="black" stroke="black" points="479.102,-913.793 479.605,-903.21 472.612,-911.169 479.102,-913.793"/>
</g>
<!-- lib/loader/egg_loader.js&#45;&gt;is&#45;type&#45;of -->
<g id="edge28" class="edge"><title>lib/loader/egg_loader.js&#45;&gt;is&#45;type&#45;of</title>
<path fill="none" stroke="black" d="M126.05,-462.738C128.236,-410.237 147.236,-136.407 307.096,-33.5097 389.488,19.5242 449.036,6.29486 526.654,-53.5097 559.285,-78.6517 573.864,-127.384 579.635,-154.022"/>
<polygon fill="black" stroke="black" points="576.225,-154.82 581.596,-163.953 583.092,-153.464 576.225,-154.82"/>
</g>
<!-- lib/loader/egg_loader.js&#45;&gt;lib/egg.js -->
<g id="edge15" class="edge"><title>lib/loader/egg_loader.js&#45;&gt;lib/egg.js</title>
<path fill="none" stroke="black" d="M126.692,-462.831C130.398,-435.701 146.4,-353.598 193.812,-310.51 195.896,-308.615 198.243,-306.977 200.735,-305.577"/>
<polygon fill="black" stroke="black" points="202.385,-308.677 210.194,-301.518 199.624,-302.245 202.385,-308.677"/>
</g>
<!-- lib/loader/egg_loader.js&#45;&gt;lib/loader/context_loader.js -->
<g id="edge17" class="edge"><title>lib/loader/egg_loader.js&#45;&gt;lib/loader/context_loader.js</title>
<path fill="none" stroke="black" d="M128.603,-462.911C135.996,-441.68 157.847,-386.2 193.812,-354.51 195.571,-352.96 197.482,-351.529 199.489,-350.211"/>
<polygon fill="black" stroke="black" points="201.648,-353.018 208.718,-345.127 198.27,-346.886 201.648,-353.018"/>
</g>
<!-- lib/loader/egg_loader.js&#45;&gt;lib/loader/file_loader.js -->
<g id="edge18" class="edge"><title>lib/loader/egg_loader.js&#45;&gt;lib/loader/file_loader.js</title>
<path fill="none" stroke="black" d="M128.515,-462.809C135.572,-441.962 156.48,-389.073 193.812,-364.51 226.536,-342.978 242.166,-356.793 280.831,-350.51 294.758,-348.246 309.961,-345.757 323.623,-343.513"/>
<polygon fill="black" stroke="black" points="324.424,-346.928 333.724,-341.852 323.289,-340.021 324.424,-346.928"/>
</g>
<!-- lib/loader/mixin/config.js -->
<g id="node16" class="node"><title>lib/loader/mixin/config.js</title>
<g id="a_node16"><a xlink:href="lib/loader/mixin/config.js" xlink:title="config.js">
<path fill="#ffffcc" stroke="black" d="M258.655,-538.01C258.655,-538.01 215.988,-538.01 215.988,-538.01 213.155,-538.01 210.322,-535.176 210.322,-532.343 210.322,-532.343 210.322,-526.676 210.322,-526.676 210.322,-523.843 213.155,-521.01 215.988,-521.01 215.988,-521.01 258.655,-521.01 258.655,-521.01 261.488,-521.01 264.322,-523.843 264.322,-526.676 264.322,-526.676 264.322,-532.343 264.322,-532.343 264.322,-535.176 261.488,-538.01 258.655,-538.01"/>
<text text-anchor="middle" x="237.322" y="-526.81" font-family="Helvetica,sans-Serif" font-size="9.00">config.js</text>
</a>
</g>
</g>
<!-- lib/loader/egg_loader.js&#45;&gt;lib/loader/mixin/config.js -->
<g id="edge19" class="edge"><title>lib/loader/egg_loader.js&#45;&gt;lib/loader/mixin/config.js</title>
<path fill="none" stroke="black" d="M137.83,-480.305C151.068,-489.677 173.191,-504.513 193.812,-514.51 196.092,-515.615 198.475,-516.681 200.899,-517.699"/>
<polygon fill="black" stroke="black" points="199.728,-520.999 210.316,-521.376 202.274,-514.479 199.728,-520.999"/>
</g>
<!-- lib/loader/mixin/controller.js -->
<g id="node17" class="node"><title>lib/loader/mixin/controller.js</title>
<g id="a_node17"><a xlink:href="lib/loader/mixin/controller.js" xlink:title="controller.js">
<path fill="#ffffcc" stroke="black" d="M262.18,-393.01C262.18,-393.01 212.463,-393.01 212.463,-393.01 209.63,-393.01 206.797,-390.176 206.797,-387.343 206.797,-387.343 206.797,-381.676 206.797,-381.676 206.797,-378.843 209.63,-376.01 212.463,-376.01 212.463,-376.01 262.18,-376.01 262.18,-376.01 265.013,-376.01 267.846,-378.843 267.846,-381.676 267.846,-381.676 267.846,-387.343 267.846,-387.343 267.846,-390.176 265.013,-393.01 262.18,-393.01"/>
<text text-anchor="middle" x="237.322" y="-381.81" font-family="Helvetica,sans-Serif" font-size="9.00">controller.js</text>
</a>
</g>
</g>
<!-- lib/loader/egg_loader.js&#45;&gt;lib/loader/mixin/controller.js -->
<g id="edge20" class="edge"><title>lib/loader/egg_loader.js&#45;&gt;lib/loader/mixin/controller.js</title>
<path fill="none" stroke="black" d="M131.481,-462.994C142.038,-447.871 166.087,-416.255 193.812,-398.51 194.916,-397.803 196.06,-397.128 197.232,-396.485"/>
<polygon fill="black" stroke="black" points="199.018,-399.515 206.628,-392.143 196.082,-393.161 199.018,-399.515"/>
</g>
<!-- lib/loader/mixin/custom.js -->
<g id="node18" class="node"><title>lib/loader/mixin/custom.js</title>
<g id="a_node18"><a xlink:href="lib/loader/mixin/custom.js" xlink:title="custom.js">
<path fill="#ffffcc" stroke="black" d="M258.663,-480.01C258.663,-480.01 215.98,-480.01 215.98,-480.01 213.147,-480.01 210.313,-477.176 210.313,-474.343 210.313,-474.343 210.313,-468.676 210.313,-468.676 210.313,-465.843 213.147,-463.01 215.98,-463.01 215.98,-463.01 258.663,-463.01 258.663,-463.01 261.497,-463.01 264.33,-465.843 264.33,-468.676 264.33,-468.676 264.33,-474.343 264.33,-474.343 264.33,-477.176 261.497,-480.01 258.663,-480.01"/>
<text text-anchor="middle" x="237.322" y="-468.81" font-family="Helvetica,sans-Serif" font-size="9.00">custom.js</text>
</a>
</g>
</g>
<!-- lib/loader/egg_loader.js&#45;&gt;lib/loader/mixin/custom.js -->
<g id="edge21" class="edge"><title>lib/loader/egg_loader.js&#45;&gt;lib/loader/mixin/custom.js</title>
<path fill="none" stroke="black" d="M159.542,-471.51C172.369,-471.51 187.025,-471.51 200.071,-471.51"/>
<polygon fill="black" stroke="black" points="200.123,-475.01 210.123,-471.51 200.123,-468.01 200.123,-475.01"/>
</g>
<!-- lib/loader/mixin/extend.js -->
<g id="node19" class="node"><title>lib/loader/mixin/extend.js</title>
<g id="a_node19"><a xlink:href="lib/loader/mixin/extend.js" xlink:title="extend.js">
<path fill="#ffffcc" stroke="black" d="M258.655,-451.01C258.655,-451.01 215.988,-451.01 215.988,-451.01 213.155,-451.01 210.322,-448.176 210.322,-445.343 210.322,-445.343 210.322,-439.676 210.322,-439.676 210.322,-436.843 213.155,-434.01 215.988,-434.01 215.988,-434.01 258.655,-434.01 258.655,-434.01 261.488,-434.01 264.322,-436.843 264.322,-439.676 264.322,-439.676 264.322,-445.343 264.322,-445.343 264.322,-448.176 261.488,-451.01 258.655,-451.01"/>
<text text-anchor="middle" x="237.322" y="-439.81" font-family="Helvetica,sans-Serif" font-size="9.00">extend.js</text>
</a>
</g>
</g>
<!-- lib/loader/egg_loader.js&#45;&gt;lib/loader/mixin/extend.js -->
<g id="edge22" class="edge"><title>lib/loader/egg_loader.js&#45;&gt;lib/loader/mixin/extend.js</title>
<path fill="none" stroke="black" d="M158.344,-462.966C171.539,-459.504 186.824,-455.494 200.347,-451.947"/>
<polygon fill="black" stroke="black" points="201.496,-455.264 210.281,-449.341 199.72,-448.493 201.496,-455.264"/>
</g>
<!-- lib/loader/mixin/middleware.js -->
<g id="node20" class="node"><title>lib/loader/mixin/middleware.js</title>
<g id="a_node20"><a xlink:href="lib/loader/mixin/middleware.js" xlink:title="middleware.js">
<path fill="#ffffcc" stroke="black" d="M267.174,-509.01C267.174,-509.01 207.469,-509.01 207.469,-509.01 204.635,-509.01 201.802,-506.176 201.802,-503.343 201.802,-503.343 201.802,-497.676 201.802,-497.676 201.802,-494.843 204.635,-492.01 207.469,-492.01 207.469,-492.01 267.174,-492.01 267.174,-492.01 270.008,-492.01 272.841,-494.843 272.841,-497.676 272.841,-497.676 272.841,-503.343 272.841,-503.343 272.841,-506.176 270.008,-509.01 267.174,-509.01"/>
<text text-anchor="middle" x="237.322" y="-497.81" font-family="Helvetica,sans-Serif" font-size="9.00">middleware.js</text>
</a>
</g>
</g>
<!-- lib/loader/egg_loader.js&#45;&gt;lib/loader/mixin/middleware.js -->
<g id="edge23" class="edge"><title>lib/loader/egg_loader.js&#45;&gt;lib/loader/mixin/middleware.js</title>
<path fill="none" stroke="black" d="M158.344,-480.054C169.378,-482.948 181.873,-486.226 193.577,-489.297"/>
<polygon fill="black" stroke="black" points="193.041,-492.774 203.602,-491.926 194.818,-486.003 193.041,-492.774"/>
</g>
<!-- lib/loader/mixin/plugin.js -->
<g id="node21" class="node"><title>lib/loader/mixin/plugin.js</title>
<g id="a_node21"><a xlink:href="lib/loader/mixin/plugin.js" xlink:title="plugin.js">
<path fill="#ffffcc" stroke="black" d="M258.655,-422.01C258.655,-422.01 215.988,-422.01 215.988,-422.01 213.155,-422.01 210.322,-419.176 210.322,-416.343 210.322,-416.343 210.322,-410.676 210.322,-410.676 210.322,-407.843 213.155,-405.01 215.988,-405.01 215.988,-405.01 258.655,-405.01 258.655,-405.01 261.488,-405.01 264.322,-407.843 264.322,-410.676 264.322,-410.676 264.322,-416.343 264.322,-416.343 264.322,-419.176 261.488,-422.01 258.655,-422.01"/>
<text text-anchor="middle" x="237.322" y="-410.81" font-family="Helvetica,sans-Serif" font-size="9.00">plugin.js</text>
</a>
</g>
</g>
<!-- lib/loader/egg_loader.js&#45;&gt;lib/loader/mixin/plugin.js -->
<g id="edge24" class="edge"><title>lib/loader/egg_loader.js&#45;&gt;lib/loader/mixin/plugin.js</title>
<path fill="none" stroke="black" d="M137.278,-462.754C150.392,-453.094 172.746,-437.585 193.812,-427.51 196.081,-426.424 198.456,-425.39 200.874,-424.41"/>
<polygon fill="black" stroke="black" points="202.125,-427.679 210.28,-420.915 199.687,-421.118 202.125,-427.679"/>
</g>
<!-- lib/loader/mixin/router.js -->
<g id="node22" class="node"><title>lib/loader/mixin/router.js</title>
<g id="a_node22"><a xlink:href="lib/loader/mixin/router.js" xlink:title="router.js">
<path fill="#ffffcc" stroke="black" d="M258.655,-596.01C258.655,-596.01 215.988,-596.01 215.988,-596.01 213.155,-596.01 210.322,-593.176 210.322,-590.343 210.322,-590.343 210.322,-584.676 210.322,-584.676 210.322,-581.843 213.155,-579.01 215.988,-579.01 215.988,-579.01 258.655,-579.01 258.655,-579.01 261.488,-579.01 264.322,-581.843 264.322,-584.676 264.322,-584.676 264.322,-590.343 264.322,-590.343 264.322,-593.176 261.488,-596.01 258.655,-596.01"/>
<text text-anchor="middle" x="237.322" y="-584.81" font-family="Helvetica,sans-Serif" font-size="9.00">router.js</text>
</a>
</g>
</g>
<!-- lib/loader/egg_loader.js&#45;&gt;lib/loader/mixin/router.js -->
<g id="edge25" class="edge"><title>lib/loader/egg_loader.js&#45;&gt;lib/loader/mixin/router.js</title>
<path fill="none" stroke="black" d="M129.316,-480.179C137.654,-499.542 160.371,-546.631 193.812,-572.51 195.999,-574.203 198.393,-575.714 200.894,-577.062"/>
<polygon fill="black" stroke="black" points="199.691,-580.358 210.248,-581.257 202.556,-573.971 199.691,-580.358"/>
</g>
<!-- lib/loader/mixin/service.js -->
<g id="node23" class="node"><title>lib/loader/mixin/service.js</title>
<g id="a_node23"><a xlink:href="lib/loader/mixin/service.js" xlink:title="service.js">
<path fill="#ffffcc" stroke="black" d="M258.655,-567.01C258.655,-567.01 215.988,-567.01 215.988,-567.01 213.155,-567.01 210.322,-564.176 210.322,-561.343 210.322,-561.343 210.322,-555.676 210.322,-555.676 210.322,-552.843 213.155,-550.01 215.988,-550.01 215.988,-550.01 258.655,-550.01 258.655,-550.01 261.488,-550.01 264.322,-552.843 264.322,-555.676 264.322,-555.676 264.322,-561.343 264.322,-561.343 264.322,-564.176 261.488,-567.01 258.655,-567.01"/>
<text text-anchor="middle" x="237.322" y="-555.81" font-family="Helvetica,sans-Serif" font-size="9.00">service.js</text>
</a>
</g>
</g>
<!-- lib/loader/egg_loader.js&#45;&gt;lib/loader/mixin/service.js -->
<g id="edge26" class="edge"><title>lib/loader/egg_loader.js&#45;&gt;lib/loader/mixin/service.js</title>
<path fill="none" stroke="black" d="M131.887,-480.321C142.717,-495.317 166.704,-525.887 193.812,-543.51 196.071,-544.979 198.492,-546.324 200.99,-547.552"/>
<polygon fill="black" stroke="black" points="199.652,-550.786 210.223,-551.499 202.404,-544.35 199.652,-550.786"/>
</g>
<!-- lib/loader/egg_loader.js&#45;&gt;lib/utils/index.js -->
<g id="edge16" class="edge"><title>lib/loader/egg_loader.js&#45;&gt;lib/utils/index.js</title>
<path fill="none" stroke="black" d="M127.36,-480.106C135.887,-523.433 180.682,-718.359 307.096,-783.51 351.362,-806.324 373.54,-803.516 419.145,-783.51 442.95,-773.067 461.765,-748.81 472.555,-732.033"/>
<polygon fill="black" stroke="black" points="475.736,-733.539 477.958,-723.18 469.761,-729.892 475.736,-733.539"/>
</g>
<!-- lib/loader/file_loader.js&#45;&gt;debug -->
<g id="edge30" class="edge"><title>lib/loader/file_loader.js&#45;&gt;debug</title>
<path fill="none" stroke="black" d="M369.553,-345.276C375.614,-382.366 399.721,-530.065 419.145,-651.51 434.84,-749.645 398.434,-792.929 455.875,-877.583"/>
<polygon fill="black" stroke="black" points="453.115,-879.743 461.732,-885.908 458.84,-875.715 453.115,-879.743"/>
</g>
<!-- lib/loader/file_loader.js&#45;&gt;depd -->
<g id="edge31" class="edge"><title>lib/loader/file_loader.js&#45;&gt;depd</title>
<path fill="none" stroke="black" d="M372.47,-327.736C389.337,-293.718 450.624,-170.109 473.744,-123.479"/>
<polygon fill="black" stroke="black" points="476.993,-124.806 478.299,-114.292 470.722,-121.696 476.993,-124.806"/>
</g>
<!-- lib/loader/file_loader.js&#45;&gt;globby -->
<g id="edge32" class="edge"><title>lib/loader/file_loader.js&#45;&gt;globby</title>
<path fill="none" stroke="black" d="M382.626,-327.897C401.989,-316.401 436.506,-295.908 459.492,-282.261"/>
<polygon fill="black" stroke="black" points="461.454,-285.167 468.266,-277.052 457.88,-279.148 461.454,-285.167"/>
</g>
<!-- lib/loader/file_loader.js&#45;&gt;is&#45;type&#45;of -->
<g id="edge33" class="edge"><title>lib/loader/file_loader.js&#45;&gt;is&#45;type&#45;of</title>
<path fill="none" stroke="black" d="M373.997,-327.804C390.037,-304.242 434.723,-239.962 455.145,-224.51 482.494,-203.816 494.889,-208.442 526.654,-195.51 535.085,-192.077 544.223,-188.347 552.635,-184.909"/>
<polygon fill="black" stroke="black" points="554.158,-188.067 562.089,-181.043 551.509,-181.588 554.158,-188.067"/>
</g>
<!-- lib/loader/file_loader.js&#45;&gt;lib/utils/index.js -->
<g id="edge29" class="edge"><title>lib/loader/file_loader.js&#45;&gt;lib/utils/index.js</title>
<path fill="none" stroke="black" d="M370.728,-345.115C385.268,-393.104 456.426,-627.95 477.045,-695.999"/>
<polygon fill="black" stroke="black" points="473.751,-697.197 480,-705.752 480.45,-695.167 473.751,-697.197"/>
</g>
<!-- lib/loader/mixin/config.js&#45;&gt;debug -->
<g id="edge34" class="edge"><title>lib/loader/mixin/config.js&#45;&gt;debug</title>
<path fill="none" stroke="black" d="M264.702,-532.981C270.894,-535.061 276.842,-538.344 280.831,-543.51 337.986,-617.527 238.938,-899.481 307.096,-963.51 343.392,-997.607 373.54,-983.516 419.145,-963.51 442.95,-953.067 461.765,-928.81 472.555,-912.033"/>
<polygon fill="black" stroke="black" points="475.736,-913.539 477.958,-903.18 469.761,-909.892 475.736,-913.539"/>
</g>
<!-- lib/loader/mixin/config.js&#45;&gt;extend -->
<g id="edge35" class="edge"><title>lib/loader/mixin/config.js&#45;&gt;extend</title>
<path fill="none" stroke="black" d="M264.686,-532.993C270.878,-535.073 276.83,-538.353 280.831,-543.51 334.215,-612.313 250.828,-868.044 307.096,-934.51 312.818,-941.269 321.15,-945.099 329.76,-947.193"/>
<polygon fill="black" stroke="black" points="329.406,-950.684 339.854,-948.927 330.591,-943.785 329.406,-950.684"/>
</g>
<!-- lib/loader/mixin/controller.js&#45;&gt;is&#45;type&#45;of -->
<g id="edge36" class="edge"><title>lib/loader/mixin/controller.js&#45;&gt;is&#45;type&#45;of</title>
<path fill="none" stroke="black" d="M268.096,-379.835C272.871,-377.924 277.372,-375.249 280.831,-371.51 317.317,-332.07 274.476,-296.202 307.096,-253.51 329.673,-223.961 419.153,-184.861 455.145,-175.51 485.159,-167.712 520.483,-167.533 546.376,-168.979"/>
<polygon fill="black" stroke="black" points="546.293,-172.482 556.503,-169.654 546.758,-165.497 546.293,-172.482"/>
</g>
<!-- utility -->
<g id="node30" class="node"><title>utility</title>
<path fill="#ffffcc" stroke="red" d="M504.987,-248.01C504.987,-248.01 462.32,-248.01 462.32,-248.01 459.487,-248.01 456.654,-245.176 456.654,-242.343 456.654,-242.343 456.654,-236.676 456.654,-236.676 456.654,-233.843 459.487,-231.01 462.32,-231.01 462.32,-231.01 504.987,-231.01 504.987,-231.01 507.82,-231.01 510.654,-233.843 510.654,-236.676 510.654,-236.676 510.654,-242.343 510.654,-242.343 510.654,-245.176 507.82,-248.01 504.987,-248.01"/>
<text text-anchor="middle" x="483.654" y="-236.81" font-family="Helvetica,sans-Serif" font-size="9.00" fill="red">utility</text>
</g>
<!-- lib/loader/mixin/controller.js&#45;&gt;utility -->
<g id="edge37" class="edge"><title>lib/loader/mixin/controller.js&#45;&gt;utility</title>
<path fill="none" stroke="black" d="M267.874,-378.98C272.561,-377.157 277.089,-374.733 280.831,-371.51 301.356,-353.831 287.635,-335.354 307.096,-316.51 346.492,-278.361 407.905,-257.421 446.671,-247.342"/>
<polygon fill="black" stroke="black" points="447.632,-250.709 456.489,-244.895 445.94,-243.917 447.632,-250.709"/>
</g>
<!-- lib/loader/mixin/extend.js&#45;&gt;debug -->
<g id="edge39" class="edge"><title>lib/loader/mixin/extend.js&#45;&gt;debug</title>
<path fill="none" stroke="black" d="M264.687,-445.992C270.879,-448.072 276.831,-451.352 280.831,-456.51 334.475,-525.673 250.673,-782.595 307.096,-849.51 340.117,-888.671 369.593,-863.523 419.145,-876.51 428.085,-878.853 437.695,-881.506 446.666,-884.042"/>
<polygon fill="black" stroke="black" points="445.877,-887.456 456.453,-886.831 447.796,-880.724 445.877,-887.456"/>
</g>
<!-- lib/loader/mixin/extend.js&#45;&gt;lib/utils/index.js -->
<g id="edge38" class="edge"><title>lib/loader/mixin/extend.js&#45;&gt;lib/utils/index.js</title>
<path fill="none" stroke="black" d="M264.614,-446.049C270.807,-448.129 276.778,-451.394 280.831,-456.51 322.258,-508.785 257.911,-710.456 307.096,-755.51 325.457,-772.329 395.261,-762.549 419.145,-755.51 436.365,-750.434 453.316,-739.076 465.369,-729.598"/>
<polygon fill="black" stroke="black" points="467.713,-732.202 473.213,-723.146 463.266,-726.796 467.713,-732.202"/>
</g>
<!-- lib/loader/mixin/middleware.js&#45;&gt;debug -->
<g id="edge41" class="edge"><title>lib/loader/mixin/middleware.js&#45;&gt;debug</title>
<path fill="none" stroke="black" d="M273.168,-507.866C276.092,-509.632 278.728,-511.814 280.831,-514.51 330.314,-577.922 251.229,-817.643 307.096,-875.51 325.665,-894.744 400.421,-896.589 446.184,-895.811"/>
<polygon fill="black" stroke="black" points="446.39,-899.307 456.311,-895.589 446.236,-892.309 446.39,-899.307"/>
</g>
<!-- lib/loader/mixin/middleware.js&#45;&gt;egg&#45;path&#45;matching -->
<g id="edge42" class="edge"><title>lib/loader/mixin/middleware.js&#45;&gt;egg&#45;path&#45;matching</title>
<path fill="none" stroke="black" d="M273.182,-507.855C276.103,-509.624 278.735,-511.809 280.831,-514.51 333.695,-582.594 253.482,-834.015 307.096,-901.51 308.757,-903.602 310.655,-905.457 312.728,-907.102"/>
<polygon fill="black" stroke="black" points="311.103,-910.211 321.457,-912.457 314.764,-904.244 311.103,-910.211"/>
</g>
<!-- lib/loader/mixin/middleware.js&#45;&gt;is&#45;type&#45;of -->
<g id="edge43" class="edge"><title>lib/loader/mixin/middleware.js&#45;&gt;is&#45;type&#45;of</title>
<path fill="none" stroke="black" d="M272.97,-492.138C275.933,-490.341 278.632,-488.159 280.831,-485.51 329.385,-427.025 268.146,-381.785 307.096,-316.51 339.125,-262.832 371.747,-272.261 419.145,-231.51 436.065,-216.961 435.335,-206.784 455.145,-196.51 483.625,-181.737 519.871,-175.97 546.48,-173.763"/>
<polygon fill="black" stroke="black" points="546.795,-177.249 556.526,-173.059 546.306,-170.266 546.795,-177.249"/>
</g>
<!-- lib/loader/mixin/middleware.js&#45;&gt;lib/utils/index.js -->
<g id="edge40" class="edge"><title>lib/loader/mixin/middleware.js&#45;&gt;lib/utils/index.js</title>
<path fill="none" stroke="black" d="M273.086,-507.931C276.025,-509.685 278.688,-511.846 280.831,-514.51 316.547,-558.89 264.801,-731.348 307.096,-769.51 344.069,-802.871 372.482,-786.906 419.145,-769.51 439.549,-761.903 457.754,-744.462 469.386,-731.245"/>
<polygon fill="black" stroke="black" points="472.292,-733.226 476.037,-723.315 466.929,-728.728 472.292,-733.226"/>
</g>
<!-- lib/loader/mixin/plugin.js&#45;&gt;debug -->
<g id="edge46" class="edge"><title>lib/loader/mixin/plugin.js&#45;&gt;debug</title>
<path fill="none" stroke="black" d="M264.688,-416.992C270.88,-419.071 276.832,-422.352 280.831,-427.51 334.735,-497.032 250.682,-755.008 307.096,-822.51 340.013,-861.896 373.184,-827.653 419.145,-850.51 437.541,-859.658 438.057,-868.102 455.145,-879.51 455.772,-879.929 456.413,-880.347 457.063,-880.762"/>
<polygon fill="black" stroke="black" points="455.401,-883.845 465.788,-885.934 458.971,-877.824 455.401,-883.845"/>
</g>
<!-- lib/loader/mixin/plugin.js&#45;&gt;lib/utils/index.js -->
<g id="edge44" class="edge"><title>lib/loader/mixin/plugin.js&#45;&gt;lib/utils/index.js</title>
<path fill="none" stroke="black" d="M264.631,-417.037C270.823,-419.116 276.79,-422.385 280.831,-427.51 324.466,-482.838 255.247,-695.792 307.096,-743.51 325.417,-760.372 394.814,-748.802 419.145,-743.51 433.209,-740.45 447.891,-733.989 459.591,-727.941"/>
<polygon fill="black" stroke="black" points="461.513,-730.881 468.639,-723.041 458.179,-724.725 461.513,-730.881"/>
</g>
<!-- lib/utils/sequencify.js -->
<g id="node27" class="node"><title>lib/utils/sequencify.js</title>
<g id="a_node27"><a xlink:href="lib/utils/sequencify.js" xlink:title="sequencify.js">
<path fill="#ffffcc" stroke="black" d="M395.318,-738.01C395.318,-738.01 338.923,-738.01 338.923,-738.01 336.089,-738.01 333.256,-735.176 333.256,-732.343 333.256,-732.343 333.256,-726.676 333.256,-726.676 333.256,-723.843 336.089,-721.01 338.923,-721.01 338.923,-721.01 395.318,-721.01 395.318,-721.01 398.151,-721.01 400.984,-723.843 400.984,-726.676 400.984,-726.676 400.984,-732.343 400.984,-732.343 400.984,-735.176 398.151,-738.01 395.318,-738.01"/>
<text text-anchor="middle" x="367.12" y="-726.81" font-family="Helvetica,sans-Serif" font-size="9.00">sequencify.js</text>
</a>
</g>
</g>
<!-- lib/loader/mixin/plugin.js&#45;&gt;lib/utils/sequencify.js -->
<g id="edge45" class="edge"><title>lib/loader/mixin/plugin.js&#45;&gt;lib/utils/sequencify.js</title>
<path fill="none" stroke="black" d="M264.602,-417.059C270.795,-419.139 276.768,-422.402 280.831,-427.51 320.7,-477.631 265.515,-665.799 307.096,-714.51 311.375,-719.523 317.071,-722.984 323.239,-725.352"/>
<polygon fill="black" stroke="black" points="322.607,-728.813 333.186,-728.238 324.557,-722.09 322.607,-728.813"/>
</g>
<!-- lib/utils/index.js&#45;&gt;is&#45;type&#45;of -->
<g id="edge47" class="edge"><title>lib/utils/index.js&#45;&gt;is&#45;type&#45;of</title>
<path fill="none" stroke="black" d="M486.412,-706.002C492.33,-677.275 511.983,-581.207 526.654,-501.51 548.358,-383.606 571.736,-241.4 579.907,-191.174"/>
<polygon fill="black" stroke="black" points="583.384,-191.597 581.532,-181.166 576.475,-190.476 583.384,-191.597"/>
</g>
<!-- node&#45;homedir -->
<g id="node28" class="node"><title>node&#45;homedir</title>
<path fill="#ffffcc" stroke="red" d="M613.798,-723.01C613.798,-723.01 554.061,-723.01 554.061,-723.01 551.228,-723.01 548.395,-720.176 548.395,-717.343 548.395,-717.343 548.395,-711.676 548.395,-711.676 548.395,-708.843 551.228,-706.01 554.061,-706.01 554.061,-706.01 613.798,-706.01 613.798,-706.01 616.632,-706.01 619.465,-708.843 619.465,-711.676 619.465,-711.676 619.465,-717.343 619.465,-717.343 619.465,-720.176 616.632,-723.01 613.798,-723.01"/>
<text text-anchor="middle" x="583.93" y="-711.81" font-family="Helvetica,sans-Serif" font-size="9.00" fill="red">node&#45;homedir</text>
</g>
<!-- lib/utils/index.js&#45;&gt;node&#45;homedir -->
<g id="edge48" class="edge"><title>lib/utils/index.js&#45;&gt;node&#45;homedir</title>
<path fill="none" stroke="black" d="M510.732,-714.51C519.168,-714.51 528.776,-714.51 538.169,-714.51"/>
<polygon fill="black" stroke="black" points="538.211,-718.01 548.211,-714.51 538.211,-711.01 538.211,-718.01"/>
</g>
<!-- lib/utils/router.js&#45;&gt;inflection -->
<g id="edge50" class="edge"><title>lib/utils/router.js&#45;&gt;inflection</title>
<path fill="none" stroke="black" d="M394.139,-702.388C403.109,-704.28 412.549,-707.855 419.145,-714.51 461.008,-756.753 420.888,-797.169 456.183,-848.872"/>
<polygon fill="black" stroke="black" points="453.43,-851.035 462.236,-856.926 459.025,-846.829 453.43,-851.035"/>
</g>
<!-- lib/utils/router.js&#45;&gt;is&#45;type&#45;of -->
<g id="edge51" class="edge"><title>lib/utils/router.js&#45;&gt;is&#45;type&#45;of</title>
<path fill="none" stroke="black" d="M394.249,-697.84C403.125,-695.737 412.475,-692.027 419.145,-685.51 566.401,-541.619 581.509,-265.669 582.856,-191.341"/>
<polygon fill="black" stroke="black" points="586.357,-191.233 582.972,-181.194 579.357,-191.153 586.357,-191.233"/>
</g>
<!-- lib/utils/router.js&#45;&gt;koa&#45;router -->
<g id="edge52" class="edge"><title>lib/utils/router.js&#45;&gt;koa&#45;router</title>
<path fill="none" stroke="black" d="M394.171,-703.401C402.836,-705.408 412.069,-708.796 419.145,-714.51 436.677,-728.667 462.88,-788.267 475.437,-818.605"/>
<polygon fill="black" stroke="black" points="472.251,-820.06 479.273,-827.993 478.731,-817.412 472.251,-820.06"/>
</g>
<!-- lib/utils/router.js&#45;&gt;lib/utils/index.js -->
<g id="edge49" class="edge"><title>lib/utils/router.js&#45;&gt;lib/utils/index.js</title>
<path fill="none" stroke="black" d="M394.396,-703.722C409.82,-705.607 429.535,-708.017 446.417,-710.08"/>
<polygon fill="black" stroke="black" points="446.149,-713.574 456.5,-711.313 446.998,-706.625 446.149,-713.574"/>
</g>
<!-- lib/utils/router.js&#45;&gt;utility -->
<g id="edge53" class="edge"><title>lib/utils/router.js&#45;&gt;utility</title>
<path fill="none" stroke="black" d="M394.306,-698.796C403.518,-696.823 413.077,-692.952 419.145,-685.51 478.056,-613.253 406.342,-351.138 454.995,-257.016"/>
<polygon fill="black" stroke="black" points="458.146,-258.566 460.265,-248.185 452.135,-254.979 458.146,-258.566"/>
</g>
</g>
</svg>
